<svg t="1576019625612" class="icon" viewBox="0 0 1024 1024" version="1.1" xmlns="http://www.w3.org/2000/svg" p-id="3011" width="200" height="200" fill="white"><path d="M510.677349 83.528976c60.890945 0 119.750425 13.191522 174.046109 38.054966l-40.08743 70.028535 202.970482-1.016732L745.616402 15.532904l-35.519635 61.908677c-61.908676-29.43224-129.903748-44.656225-199.419418-44.656226-257.266166 0-466.832909 209.565743-466.83291 466.83291 0 93.367382 27.399775 183.690566 79.667994 261.326095l42.115895-28.415507C118.943638 663.517049 94.58906 583.346188 94.58906 499.618265 94.58806 270.263739 281.317824 83.528976 510.677349 83.528976z m425.22488 223.773997l-46.174825 20.802515c24.355578 53.787818 37.038234 111.636565 37.038234 171.511777 0 229.357525-186.729765 416.088289-416.088289 416.088289-46.684691 0-92.351649-7.607994-135.991143-22.83198l34.000035-65.967606-202.467615 10.148324 110.115965 170.500044 35.519635-69.012803c50.738622 18.777049 104.526439 27.908641 159.329989 27.908641 257.266166 0 466.832909-209.566743 466.832909-466.832909-0.506866-66.980339-14.71512-131.931213-42.114895-192.314292z m0 0" p-id="3012"></path><path d="M317.096391 1023.059248L192.387273 829.966161l229.391516-11.496968-36.038498 69.923563c40.060437 12.97158 82.044367 19.542847 124.936058 19.542847 225.146635 0 408.316338-183.169703 408.316338-408.316339 0-58.417597-12.228776-115.043666-36.347416-168.305622l-3.212153-7.09413 60.343089-27.185831 3.203156 7.059138c27.888647 61.461794 42.291849 127.226454 42.808712 195.467461 0 261.756982-212.906862 474.663844-474.60486 474.663844-54.211706 0-106.500919-8.76069-155.545987-26.050131l-38.540837 74.885255z m-97.046412-178.914825l95.523813 147.906001 32.521425-63.187339 6.457297 2.38937c49.176034 18.198202 101.874139 27.425769 156.632701 27.425769 253.126258 0 459.059959-205.933701 459.059959-459.059959-0.480873-63.377289-13.353479-124.591149-38.274908-182.018007l-32.013559 14.422197c22.950948 53.204971 34.581882 109.550115 34.581881 167.59481 0 233.718375-190.142865 423.86124-423.861239 423.86124-47.682427 0-94.297136-7.827936-138.550468-23.265866l-8.447773-2.947223 31.913585-61.920673-175.542714 8.79968z m-98.639991-72.405909l-4.344855-6.454298c-52.986029-78.701249-80.993644-170.567026-80.993644-265.666951 0-261.697998 212.906862-474.60486 474.60486-474.60486 68.723879 0 134.704482 14.250243 196.231259 42.367829L745.564416 0.004999l115.525539 198.295715-229.898382 1.151696 42.51479-74.270417C621.87103 102.695922 567.066481 91.301926 510.675349 91.301926c-225.146635 0-408.316338 183.170703-408.316338 408.316339 0 82.11035 24.103645 161.144511 69.704621 228.555736l4.36085 6.445301-55.014494 37.119212z m389.267361-731.181208c-253.126258 0-459.059959 205.933701-459.059959 459.059959 0 89.395429 25.577256 175.827639 74.052474 250.494952l29.221296-19.714802c-44.56325-68.553924-68.074051-148.168932-68.074051-230.78015 0-233.717375 190.142865-423.86124 423.861239-423.86124 61.470792 0 121.117065 13.040562 177.282256 38.75978l7.73796 3.543066-37.617082 65.713673 176.043583-0.881767-88.457677-151.829967-32.410454 56.489106-6.498286-3.089186c-61.276843-29.132319-127.248448-43.903424-196.081299-43.903424z" p-id="3013"></path><path d="M320.112595 320.408517h383.973757v63.550244H320.112595zM320.296547 448.36078h383.973757v63.550243H320.296547zM320.112595 576.164082h383.973757v63.550243H320.112595z" p-id="3014"></path></svg>