<svg t="1576018947730" class="icon" viewBox="0 0 1024 1024" version="1.1" xmlns="http://www.w3.org/2000/svg" p-id="1235" width="200" height="200" fill="white"><path d="M879.965559 63.620993l-736.432539 0c-43.865044 0-79.555917 38.972617-79.555917 86.877673L63.977104 872.28974c0 47.910173 35.690874 86.877673 79.555917 86.877673l736.432539 0c43.872207 0 79.56001-38.9675 79.56001-86.877673L959.52557 150.498666C959.51943 102.594633 923.830603 63.620993 879.965559 63.620993L879.965559 63.620993zM152.449088 119.592772l718.596312 0c17.924231 0 32.508391 17.382902 32.508391 38.743396l0 203.802686L119.951953 362.138854 119.951953 158.336168C119.951953 136.975674 134.527926 119.592772 152.449088 119.592772L152.449088 119.592772zM871.045399 903.19461l-718.596312 0c-17.920138 0-32.497135-15.8285-32.497135-35.277458L119.951953 399.449621l783.601838 0 0 468.468554C903.553791 887.36611 888.969631 903.19461 871.045399 903.19461L871.045399 903.19461zM184.074366 241.85535c0-13.302981 5.362124-26.52512 14.576997-35.935444 9.208732-9.407254 22.155603-14.880919 35.18536-14.880919 13.024641 0 25.970488 5.473665 35.18536 14.880919 9.207709 9.410324 14.570857 22.633486 14.570857 35.935444 0 13.30605-5.364171 26.529213-14.570857 35.930327-9.214872 9.410324-22.160719 14.890128-35.18536 14.890128-13.029758 0-25.976628-5.479805-35.18536-14.890128C189.43649 268.384563 184.074366 255.162424 184.074366 241.85535L184.074366 241.85535zM318.985008 241.85535c0-13.302981 5.364171-26.52512 14.579043-35.935444 9.207709-9.407254 22.153556-14.880919 35.180244-14.880919 13.028735 0 25.976628 5.473665 35.189454 14.880919 9.208732 9.410324 14.570857 22.633486 14.570857 35.935444 0 13.30605-5.362124 26.529213-14.570857 35.930327-9.212826 9.410324-22.160719 14.890128-35.189454 14.890128-13.026688 0-25.972535-5.479805-35.180244-14.890128C324.349179 268.384563 318.985008 255.162424 318.985008 241.85535L318.985008 241.85535zM453.895651 241.85535c0-28.060079 22.275329-50.816363 49.759287-50.816363 27.481911 0 49.755194 22.756283 49.755194 50.816363l0 0c0 28.070312-22.273283 50.820456-49.755194 50.820456C476.169957 292.675806 453.895651 269.925662 453.895651 241.85535L453.895651 241.85535 453.895651 241.85535zM437.120592 772.592087l51.04763 0 98.211812-261.19993-50.89311 0.067538L437.120592 772.592087zM231.94156 648.441509l-0.048095 19.189038 0.026606 19.395746 166.982082 66.906829 0.01842-37.349653-106.900705-47.933709 107.626229-43.930535 0.162706-38.699394L231.94156 648.441509zM623.694895 586.019831l0.154519 38.693254 107.630323 43.941791-106.901729 47.932686 0.016373 37.346583 166.993339-66.906829 0.020466-19.390629-0.042979-19.189038L623.694895 586.019831zM623.694895 586.019831" p-id="1236"></path></svg>