<svg t="1576019523123" class="icon" viewBox="0 0 1024 1024" version="1.1" xmlns="http://www.w3.org/2000/svg" p-id="2127" width="200" height="200"><path d="M784.3 388.8c79.2 0 143.7-64.4 143.7-143.7 0-79.2-64.4-143.7-143.7-143.7-79.2 0-143.7 64.4-143.7 143.7 0 15.7 2.5 30.8 7.2 44.9L347.7 427.6c-26.2-28.1-63.6-45.7-104.9-45.7-79.2 0-143.7 64.5-143.7 143.7 0 79.2 64.4 143.7 143.7 143.7 33.5 0 64.4-11.5 88.8-30.8l182.6 130.7c-8.5 18.3-13.3 38.7-13.3 60.2 0 79.2 64.5 143.7 143.7 143.7s143.7-64.5 143.7-143.7c0-79.2-64.4-143.7-143.7-143.7-37.2 0-71.1 14.2-96.7 37.5L368.6 594.9c11.4-20.5 17.8-44.2 17.8-69.3 0-17.2-3.1-33.8-8.6-49.1l298.4-136.8c26.4 30.1 65.1 49.1 108.1 49.1zM242.8 612.3c-47.8 0-86.6-38.9-86.6-86.6 0-47.8 38.9-86.7 86.6-86.7 30.3 0 56.9 15.6 72.4 39.1 0.1 0.2 0.2 0.4 0.3 0.5 8.8 13.5 13.9 29.7 13.9 47 0 47.8-38.8 86.7-86.6 86.7z m401.8 130.5c47.8 0 86.6 38.9 86.6 86.6 0 47.8-38.9 86.7-86.6 86.7-47.8 0-86.7-38.9-86.7-86.7 0-18.6 5.9-35.8 15.9-49.9 0.5-0.5 0.9-1.1 1.3-1.7l0.6-0.9c15.9-20.7 40.9-34.1 68.9-34.1z m139.7-584.3c47.8 0 86.6 38.9 86.6 86.6 0 47.8-38.9 86.6-86.6 86.6-30.9 0-58-16.2-73.3-40.6-0.6-1.2-1.3-2.3-2-3.4-7.2-12.6-11.3-27.2-11.3-42.7-0.1-47.6 38.8-86.5 86.6-86.5z" p-id="2128" fill="#f0f5ff"></path></svg>