<?xml version="1.0" standalone="no"?><!DOCTYPE svg PUBLIC "-//W3C//DTD SVG 1.1//EN" "http://www.w3.org/Graphics/SVG/1.1/DTD/svg11.dtd"><svg t="1576020017454" class="icon" viewBox="0 0 1024 1024" version="1.1" xmlns="http://www.w3.org/2000/svg" p-id="5373" xmlns:xlink="http://www.w3.org/1999/xlink" width="200" height="200" fill="white"><defs><style type="text/css"></style></defs><path d="M955.615 423.074c21.082-11.811 33.181-30.697 33.194-51.829 0.012-21.138-12.074-40.049-33.168-51.886l-392.14-219.998c-28.802-16.165-74.293-16.146-102.971-0.006l-392.14 219.993c-21.107 11.823-33.205 30.735-33.2 51.879s12.112 40.044 33.181 51.829l109.597 61.492c-0.069 0.943-0.283 1.843-0.283 2.805v292.278c0 2.164 0.181 4.278 0.531 6.343 7.357 99.042 171.885 150.815 333.898 150.815 163.814 0 330.207-52.937 334.073-154.156 0.076-0.989 0.112-1.989 0.112-3.003v-292.278c0-0.955-0.212-1.852-0.281-2.79l109.595-61.49zM498.165 166.38c1.764-0.994 6.668-2.671 13.838-2.671 6.269 0 11.473 1.345 13.862 2.684l365.076 204.821-365.089 204.839c-1.764 0.989-6.668 2.671-13.851 2.671-6.281 0-11.486-1.345-13.862-2.677l-365.076-204.839 365.102-204.828zM769.429 777.654c-0.026 0.525-0.037 1.038-0.050 1.564-0.3 28.451-98.204 80.7-257.264 80.7s-256.976-52.249-257.282-80.7c-0.018-1.413-0.112-2.803-0.275-4.178v-247.521l205.973 115.567c14.375 8.069 32.655 12.511 51.473 12.511 18.83 0 37.109-4.448 51.473-12.511l205.954-115.551v250.121z" p-id="5374"></path><path d="M944.842 454.823c-21.232 0-38.436 17.21-38.436 38.436v305.139c0 21.232 17.203 38.436 38.436 38.436s38.436-17.203 38.436-38.436v-305.14c0-21.226-17.203-38.435-38.436-38.435z" p-id="5375"></path></svg>