<svg t="1576030326607" class="icon" viewBox="0 0 1024 1024" version="1.1" xmlns="http://www.w3.org/2000/svg" p-id="1780" width="200" height="200" fill="white"><path d="M235.710908 565.365418c3.442402-99.843986 20.061918-175.8521 49.92097-228.089835 29.827329-52.206012 76.305897-91.50097 139.435703-117.916597L349.324502 98.858542c-104.442724 47.073108-180.749644 116.493178-228.948389 208.29193C83.631234 376.007723 65.290517 487.336274 65.290517 641.107473l0 284.032962 332.234777 0L397.525294 565.365418 235.710908 565.365418zM769.351787 565.365418c3.442402-99.843986 20.061918-175.8521 49.92097-228.089835 29.827329-52.206012 76.305897-91.50097 139.435703-117.916597L882.965381 98.858542c-104.442724 47.073108-180.749644 116.493178-228.948389 208.29193-36.744879 68.857251-55.085596 180.185802-55.085596 333.957001l0 284.032962 332.234777 0L931.166173 565.365418 769.351787 565.365418z" p-id="1781"></path></svg>